<svg width="577" height="129" viewBox="0 0 577 129" fill="none" xmlns="http://www.w3.org/2000/svg">
<path d="M186.358 44.2781V58.7042H213.432V72.6362H186.358V99.8085H169.66V29.8521H215.705V44.2781H186.358Z" fill="black"/>
<path d="M241.552 34.8913C241.552 36.1429 241.289 37.3286 240.762 38.4484C240.301 39.5024 239.642 40.4246 238.786 41.215C237.995 42.0055 237.007 42.6313 235.821 43.0924C234.702 43.5535 233.516 43.7841 232.264 43.7841C229.629 43.7841 227.423 42.9277 225.644 41.215C223.866 39.4365 222.976 37.3286 222.976 34.8913C222.976 33.7056 223.207 32.5858 223.668 31.5318C224.129 30.412 224.788 29.4568 225.644 28.6664C226.5 27.8759 227.488 27.2501 228.608 26.789C229.728 26.262 230.947 25.9985 232.264 25.9985C233.516 25.9985 234.702 26.2291 235.821 26.6902C237.007 27.1513 237.995 27.7771 238.786 28.5676C239.642 29.358 240.301 30.3132 240.762 31.433C241.289 32.487 241.552 33.6397 241.552 34.8913ZM224.162 99.8085V50.6019H240.367V99.8085H224.162Z" fill="black"/>
<path d="M285.512 99.8085V72.9326C285.512 71.5493 285.38 70.2318 285.117 68.9802C284.919 67.7287 284.557 66.6418 284.03 65.7196C283.503 64.7315 282.745 63.9739 281.757 63.447C280.835 62.8541 279.649 62.5577 278.2 62.5577C276.751 62.5577 275.466 62.8541 274.347 63.447C273.293 63.9739 272.403 64.7315 271.679 65.7196C270.954 66.7076 270.394 67.8604 269.999 69.1779C269.67 70.4294 269.505 71.7469 269.505 73.1302V99.8085H253.202V50.6019H268.912V57.4196H269.11C269.703 56.3657 270.46 55.3447 271.382 54.3566C272.37 53.3026 273.49 52.4133 274.742 51.6887C276.059 50.9642 277.476 50.3713 278.991 49.9102C280.506 49.4491 282.12 49.2185 283.832 49.2185C287.126 49.2185 289.925 49.8114 292.231 50.9971C294.537 52.1828 296.381 53.7308 297.764 55.6411C299.213 57.4855 300.234 59.6264 300.827 62.0636C301.486 64.5009 301.815 66.9382 301.815 69.3755V99.8085H285.512Z" fill="black"/>
<path d="M343.138 78.3671H341.063C339.285 78.3671 337.473 78.4659 335.629 78.6635C333.85 78.7952 332.236 79.0916 330.787 79.5527C329.404 80.0139 328.251 80.7055 327.329 81.6277C326.407 82.4841 325.946 83.6368 325.946 85.086C325.946 86.0082 326.143 86.7987 326.538 87.4574C326.999 88.1162 327.559 88.6431 328.218 89.0384C328.877 89.4336 329.634 89.73 330.491 89.9277C331.347 90.0594 332.17 90.1253 332.961 90.1253C336.255 90.1253 338.758 89.236 340.47 87.4574C342.249 85.613 343.138 83.1428 343.138 80.0468V78.3671ZM313.397 57.3208C316.295 54.5542 319.655 52.4792 323.475 51.0959C327.362 49.7126 331.314 49.0209 335.332 49.0209C339.482 49.0209 342.974 49.5479 345.806 50.6019C348.704 51.5899 351.043 53.1709 352.821 55.3447C354.6 57.4526 355.885 60.1533 356.675 63.447C357.531 66.6747 357.959 70.5282 357.959 75.0076V99.8085H343.138V94.5716H342.842C341.59 96.6137 339.68 98.1946 337.111 99.3145C334.608 100.434 331.874 100.994 328.91 100.994C326.934 100.994 324.892 100.731 322.784 100.204C320.676 99.6768 318.732 98.8204 316.954 97.6347C315.241 96.449 313.825 94.8681 312.705 92.8919C311.585 90.9157 311.025 88.4785 311.025 85.5801C311.025 82.023 311.981 79.1575 313.891 76.9837C315.867 74.8099 318.37 73.1302 321.4 71.9445C324.496 70.7588 327.922 69.9683 331.676 69.5731C335.431 69.1779 339.087 68.9802 342.644 68.9802V68.1898C342.644 65.7525 341.788 63.9739 340.075 62.8541C338.362 61.6684 336.255 61.0756 333.751 61.0756C331.446 61.0756 329.206 61.5696 327.032 62.5577C324.924 63.5458 323.113 64.7315 321.598 66.1148L313.397 57.3208Z" fill="black"/>
<path d="M386.677 62.7553V81.5289C386.677 83.8345 387.105 85.5801 387.962 86.7658C388.884 87.8856 390.498 88.4455 392.803 88.4455C393.594 88.4455 394.417 88.3796 395.274 88.2479C396.196 88.1162 396.953 87.9185 397.546 87.655L397.744 99.5121C396.624 99.9073 395.208 100.237 393.495 100.5C391.782 100.83 390.07 100.994 388.357 100.994C385.063 100.994 382.297 100.599 380.057 99.8085C377.817 98.9522 376.006 97.7665 374.623 96.2514C373.305 94.6705 372.35 92.826 371.757 90.7181C371.164 88.5443 370.868 86.14 370.868 83.5051V62.7553H362.963V50.6019H370.769V37.6579H386.677V50.6019H398.238V62.7553H386.677Z" fill="black"/>
<path d="M423.441 34.8913C423.441 36.1429 423.177 37.3286 422.651 38.4484C422.189 39.5024 421.531 40.4246 420.674 41.215C419.884 42.0055 418.896 42.6313 417.71 43.0924C416.59 43.5535 415.405 43.7841 414.153 43.7841C411.518 43.7841 409.311 42.9277 407.533 41.215C405.754 39.4365 404.865 37.3286 404.865 34.8913C404.865 33.7056 405.096 32.5858 405.557 31.5318C406.018 30.412 406.676 29.4568 407.533 28.6664C408.389 27.8759 409.377 27.2501 410.497 26.789C411.617 26.262 412.836 25.9985 414.153 25.9985C415.405 25.9985 416.59 26.2291 417.71 26.6902C418.896 27.1513 419.884 27.7771 420.674 28.5676C421.531 29.358 422.189 30.3132 422.651 31.433C423.177 32.487 423.441 33.6397 423.441 34.8913ZM406.051 99.8085V50.6019H422.255V99.8085H406.051Z" fill="black"/>
<path d="M487.261 75.0076C487.261 79.0258 486.537 82.6817 485.087 85.9753C483.638 89.203 481.662 91.9697 479.159 94.2752C476.656 96.5149 473.757 98.2605 470.464 99.5121C467.17 100.764 463.646 101.389 459.891 101.389C456.202 101.389 452.678 100.764 449.319 99.5121C446.025 98.2605 443.127 96.5149 440.624 94.2752C438.186 91.9697 436.243 89.203 434.794 85.9753C433.345 82.6817 432.62 79.0258 432.62 75.0076C432.62 70.9893 433.345 67.3664 434.794 64.1386C436.243 60.9109 438.186 58.1772 440.624 55.9375C443.127 53.6979 446.025 51.9852 449.319 50.7995C452.678 49.6138 456.202 49.0209 459.891 49.0209C463.646 49.0209 467.17 49.6138 470.464 50.7995C473.757 51.9852 476.656 53.6979 479.159 55.9375C481.662 58.1772 483.638 60.9109 485.087 64.1386C486.537 67.3664 487.261 70.9893 487.261 75.0076ZM471.649 75.0076C471.649 73.4266 471.386 71.8786 470.859 70.3636C470.332 68.8485 469.575 67.531 468.586 66.4112C467.598 65.2255 466.38 64.2704 464.931 63.5458C463.481 62.8212 461.802 62.4589 459.891 62.4589C457.981 62.4589 456.301 62.8212 454.852 63.5458C453.403 64.2704 452.184 65.2255 451.196 66.4112C450.274 67.531 449.549 68.8485 449.022 70.3636C448.561 71.8786 448.331 73.4266 448.331 75.0076C448.331 76.5885 448.561 78.1365 449.022 79.6516C449.549 81.1666 450.307 82.5499 451.295 83.8015C452.283 84.9872 453.502 85.9424 454.951 86.667C456.4 87.3916 458.08 87.7539 459.99 87.7539C461.9 87.7539 463.58 87.3916 465.029 86.667C466.479 85.9424 467.697 84.9872 468.685 83.8015C469.673 82.5499 470.398 81.1666 470.859 79.6516C471.386 78.1365 471.649 76.5885 471.649 75.0076Z" fill="black"/>
<path d="M529.831 99.8085V72.9326C529.831 71.5493 529.7 70.2318 529.436 68.9802C529.239 67.7287 528.876 66.6418 528.349 65.7196C527.822 64.7315 527.065 63.9739 526.077 63.447C525.155 62.8541 523.969 62.5577 522.52 62.5577C521.07 62.5577 519.786 62.8541 518.666 63.447C517.612 63.9739 516.723 64.7315 515.998 65.7196C515.274 66.7076 514.714 67.8604 514.319 69.1779C513.989 70.4294 513.825 71.7469 513.825 73.1302V99.8085H497.521V50.6019H513.232V57.4196H513.429C514.022 56.3657 514.78 55.3447 515.702 54.3566C516.69 53.3026 517.81 52.4133 519.061 51.6887C520.379 50.9642 521.795 50.3713 523.31 49.9102C524.825 49.4491 526.439 49.2185 528.152 49.2185C531.445 49.2185 534.245 49.8114 536.55 50.9971C538.856 52.1828 540.7 53.7308 542.084 55.6411C543.533 57.4855 544.554 59.6264 545.147 62.0636C545.806 64.5009 546.135 66.9382 546.135 69.3755V99.8085H529.831Z" fill="black"/>
<circle cx="563" cy="40" r="13" stroke="#212121" stroke-width="2"/>
<path d="M559.97 41.4945V47.9999H558.151V32.3569H562.441C564.36 32.3569 565.776 32.7243 566.689 33.459C567.609 34.1937 568.069 35.2994 568.069 36.7759C568.069 38.8445 567.021 40.2426 564.924 40.9702L569.171 47.9999H567.021L563.233 41.4945H559.97ZM559.97 39.9323H562.463C563.747 39.9323 564.688 39.6791 565.287 39.1727C565.887 38.6591 566.186 37.8923 566.186 36.8722C566.186 35.8379 565.879 35.0925 565.266 34.636C564.66 34.1795 563.682 33.9512 562.334 33.9512H559.97V39.9323Z" fill="black"/>
<path fill-rule="evenodd" clip-rule="evenodd" d="M52.9035 34.5912C52.9035 32.5398 54.0312 30.6546 55.8384 29.6845L91.3254 10.6361C82.7327 6.20459 72.9831 3.70239 62.6489 3.70239C28.0488 3.70239 0 31.7512 0 66.3513C0 100.951 28.0488 129 62.6489 129C97.2488 129 125.298 100.951 125.298 66.3513C125.298 51.3093 119.997 37.5056 111.161 26.7063L57.0048 55.7759C55.1498 56.7715 52.9035 55.4278 52.9035 53.3225V34.5912ZM57.1637 76.4565C55.3128 77.4124 54.1502 79.3213 54.1502 81.4044V100.158C54.1502 102.244 56.359 103.589 58.2123 102.632L104.497 78.7288C106.348 77.7729 107.511 75.864 107.511 73.7809V55.027C107.511 52.9412 105.302 51.5959 103.449 52.553L57.1637 76.4565Z" fill="url(#paint0_linear_706_1325)"/>
<path d="M91.3256 10.636C98.995 14.5914 105.743 20.0839 111.161 26.7062L111.682 26.4263C113.49 25.4561 114.617 23.5709 114.617 21.5197V2.78827C114.617 0.68299 112.371 -0.660723 110.516 0.33496L91.3256 10.636Z" fill="#03C687"/>
<defs>
<linearGradient id="paint0_linear_706_1325" x1="62.6489" y1="3.70239" x2="62.6489" y2="129" gradientUnits="userSpaceOnUse">
<stop stop-color="#03C687"/>
<stop offset="1" stop-color="#03C687"/>
</linearGradient>
</defs>
</svg>
